<mxfile host="app.diagrams.net" modified="2023-06-10T11:14:29.235Z" agent="Mozilla/5.0 (Macintosh; Intel Mac OS X 10_15_7) AppleWebKit/537.36 (KHTML, like Gecko) Chrome/114.0.0.0 Safari/537.36" version="21.3.8" etag="dast_xpMk5XQNhluTcc_" type="github">
  <diagram name="ページ1" id="dBr891vcrDb5OaGRVeZ2">
    <mxGraphModel>
      <root>
        <mxCell id="0" />
        <mxCell id="1" parent="0" />
      </root>
    </mxGraphModel>
  </diagram>
</mxfile>
